<svg version="1.1" id="Layer_1" xmlns="http://www.w3.org/2000/svg" xmlns:xlink="http://www.w3.org/1999/xlink" x="0px" y="0px"
	 width="100%" viewBox="0 0 150 121" enable-background="new 0 0 150 121" xml:space="preserve">
<path fill="#F8F9F8" opacity="1.000000" stroke="none" 
	d="
M1.000001,86.000000 
	C1.000000,57.726063 1.000000,29.452124 1.000000,1.089092 
	C50.999863,1.089092 100.999924,1.089092 151.000000,1.089092 
	C151.000000,2.004215 151.000000,3.002108 150.557373,4.370060 
	C146.070404,5.146374 142.026062,5.552628 137.515305,5.944164 
	C131.523499,5.929446 125.998085,5.929446 120.820114,5.929446 
	C120.062393,7.675721 119.526993,8.909638 118.783432,10.074726 
	C118.575287,10.005896 118.141129,9.944530 118.003296,9.605930 
	C116.816505,8.792692 115.806679,8.185259 114.712845,7.862915 
	C89.901230,0.551204 65.300034,0.312912 40.773430,10.074061 
	C40.368523,9.972425 40.204884,9.938652 40.146645,9.558119 
	C39.578983,8.104745 38.935871,6.058851 38.228245,6.036288 
	C30.859274,5.801320 23.479935,5.891517 15.679374,5.891517 
	C15.679374,12.401626 15.679374,18.168636 15.499745,24.056602 
	C15.498520,24.477556 15.676924,24.777557 15.896563,25.074112 
	C15.937799,25.070669 15.922525,25.152008 15.959480,25.399342 
	C16.287197,25.762579 16.577959,25.878487 16.851845,26.176920 
	C16.709690,26.571611 16.616812,26.797121 16.379272,27.121702 
	C16.202217,27.207430 16.050608,27.570482 15.796844,27.706724 
	C14.462076,29.233126 13.381071,30.623287 12.040720,32.256660 
	C0.441831,48.769108 0.290159,66.135521 6.698100,84.530815 
	C4.786536,85.276405 2.893269,85.638206 1.000001,86.000000 
z"/>
<path fill="#000100" opacity="1.000000" stroke="none" 
	d="
M151.000000,93.000000 
	C151.000000,102.640968 151.000000,112.281944 151.000000,122.000000 
	C105.979134,122.000000 60.958225,122.000000 15.062276,121.807556 
	C14.735982,120.700325 15.284727,119.785545 16.123838,118.895126 
	C16.607771,118.900986 16.801336,118.882484 17.309628,118.876862 
	C18.414581,118.632561 19.204809,118.375397 20.411615,118.130630 
	C22.625282,118.422623 24.414495,118.866982 26.220819,118.953323 
	C34.108955,119.330376 34.303436,119.079788 33.631580,111.002319 
	C33.615242,110.805862 34.015293,110.574768 34.312092,110.264854 
	C48.889168,117.350372 64.377502,120.799767 80.528954,119.877510 
	C91.721397,119.238419 102.840630,117.317268 114.080612,116.177124 
	C114.326591,116.650276 114.545174,116.848297 114.947998,117.375763 
	C118.575195,118.177452 122.075363,118.893326 125.583038,118.932243 
	C138.313858,119.073517 138.314804,118.987946 137.888855,105.624939 
	C139.132965,103.583992 140.270203,101.837685 141.607758,100.261353 
	C143.397675,98.151901 145.342834,96.174179 147.362274,94.099716 
	C147.712570,94.006485 147.859177,93.880333 148.324860,93.558929 
	C149.471130,93.291168 150.235565,93.145584 151.000000,93.000000 
z"/>
<path fill="#010101" opacity="1.000000" stroke="none" 
	d="
M151.000000,31.000002 
	C151.000000,47.687561 151.000000,64.375122 150.714294,81.752640 
	C146.299454,84.319649 142.170319,86.196686 138.024139,87.690247 
	C137.957260,86.540520 137.907425,85.774284 137.893372,84.540268 
	C137.929169,67.860550 137.929169,51.648624 137.929169,35.341141 
	C141.136780,34.019127 145.253143,32.322567 149.682983,30.555828 
	C150.330978,30.657101 150.665482,30.828552 151.000000,31.000002 
z"/>
<path fill="#F5F6F5" opacity="1.000000" stroke="none" 
	d="
M15.833471,118.870766 
	C15.284727,119.785545 14.735982,120.700325 14.593618,121.807556 
	C10.386346,122.000000 5.772692,122.000000 1.000000,122.000000 
	C1.000000,113.979645 1.000000,105.958504 1.462362,97.496704 
	C6.329103,96.777077 10.733482,96.498108 15.428262,96.352165 
	C15.844903,97.323631 15.971145,98.162064 15.991663,99.458008 
	C15.959187,105.614670 16.032433,111.313805 16.000610,117.311829 
	C15.874850,118.030731 15.854160,118.450745 15.833471,118.870766 
z"/>
<path fill="#020302" opacity="1.000000" stroke="none" 
	d="
M137.981705,5.958881 
	C142.026062,5.552628 146.070404,5.146374 150.557373,4.870060 
	C151.000000,9.356899 151.000000,13.713799 150.548340,18.487644 
	C146.382690,19.306793 142.668732,19.708994 138.742432,19.964767 
	C138.326431,19.545137 138.122772,19.271935 137.936798,18.667076 
	C137.914368,17.894966 137.874237,17.454512 137.876587,16.563698 
	C137.882431,13.400281 137.845764,10.687224 137.860718,7.640582 
	C137.935455,6.857625 137.958588,6.408253 137.981705,5.958881 
z"/>
<path fill="#000100" opacity="1.000000" stroke="none" 
	d="
M15.137861,96.219131 
	C10.733482,96.498108 6.329103,96.777077 1.462362,97.028030 
	C1.000000,93.638710 1.000000,90.277428 1.000001,86.458069 
	C2.893269,85.638206 4.786536,85.276405 6.924052,84.368317 
	C9.824821,87.954399 12.481341,92.086761 15.137861,96.219131 
z"/>
<path fill="#F3F2F3" opacity="1.000000" stroke="none" 
	d="
M138.954758,20.111193 
	C142.668732,19.708994 146.382690,19.306793 150.548340,18.952297 
	C151.000000,22.692909 151.000000,26.385818 151.000000,30.539366 
	C150.665482,30.828552 150.330978,30.657101 149.512650,30.261322 
	C145.670822,26.728392 142.312790,23.419790 138.954758,20.111193 
z"/>
<path fill="#F6F6F6" opacity="1.000000" stroke="none" 
	d="
M138.041168,88.073730 
	C142.170319,86.196686 146.299454,84.319649 150.714294,82.221298 
	C151.000000,85.361290 151.000000,88.722572 151.000000,92.541931 
	C150.235565,93.145584 149.471130,93.291168 148.041992,93.311050 
	C144.265244,91.481483 141.153214,89.777603 138.041168,88.073730 
z"/>
<path fill="#0E4401" opacity="1.000000" stroke="none" 
	d="
M138.742432,19.964764 
	C142.312790,23.419790 145.670822,26.728392 149.199173,30.331501 
	C145.253143,32.322567 141.136780,34.019127 137.929169,35.341141 
	C137.929169,51.648624 137.929169,67.860550 137.610611,84.580612 
	C136.517761,85.221977 135.243042,85.712898 135.044266,85.434799 
	C132.067474,81.269821 129.533035,83.615715 126.788452,85.737747 
	C124.752754,87.311707 122.488388,88.589935 120.228989,89.540916 
	C120.089722,83.397171 120.047340,77.712410 120.420517,72.004288 
	C122.408051,71.964493 123.989998,72.030739 125.541321,71.843384 
	C125.776848,71.814941 125.870155,70.608932 125.992615,69.658417 
	C125.637169,68.909851 125.318344,68.450470 124.964569,67.653061 
	C123.662857,66.210953 122.396088,65.106857 121.090439,63.598351 
	C121.082474,62.111336 121.113388,61.028732 121.362503,59.757187 
	C121.427261,58.727386 121.273819,57.886528 121.081787,56.757568 
	C120.783051,56.008270 120.522911,55.547077 120.259949,54.614677 
	C120.170258,49.443287 120.083397,44.743103 120.076378,39.805229 
	C120.381386,39.325871 120.606552,39.084206 120.972290,39.019745 
	C121.335388,39.120701 121.557907,39.044456 121.780434,38.968208 
	C121.504684,38.639999 121.228928,38.311783 120.962700,37.608932 
	C121.027008,36.487041 121.081795,35.739788 121.453476,34.953964 
	C122.406914,34.261169 123.043449,33.606949 123.679993,32.952728 
	C122.850449,32.301865 122.020905,31.651003 121.088943,30.804640 
	C120.986526,30.609138 120.957321,30.168694 120.843460,29.832914 
	C110.733147,23.155451 99.751244,20.194019 87.753510,19.944717 
	C87.529541,19.940672 87.080933,19.943947 86.770325,19.660595 
	C81.637779,19.569693 76.815849,19.762144 71.990280,19.972118 
	C71.986649,19.989637 71.951302,19.997168 71.535385,19.980785 
	C69.042358,20.295044 66.965240,20.625685 64.489731,20.958462 
	C60.735172,21.652733 57.379017,22.344870 53.686245,23.162220 
	C49.583500,25.514557 45.817375,27.741680 41.753498,30.168976 
	C40.326866,30.537817 39.197990,30.706486 37.991341,30.524151 
	C35.362682,27.947372 34.310085,29.154800 33.710426,31.945944 
	C33.487774,31.981604 33.047089,32.077412 32.643845,32.023666 
	C28.405287,30.523298 24.736265,30.163702 21.064829,33.782120 
	C23.135740,36.305397 25.067965,38.659691 26.999832,41.403557 
	C26.757721,43.648785 26.515966,45.504440 26.274210,47.360092 
	C26.669634,47.480480 27.065058,47.600864 27.460482,47.721252 
	C27.972702,46.194313 28.484921,44.667374 29.349705,43.147476 
	C33.376339,44.718533 34.277927,47.416519 32.636017,51.187737 
	C31.159470,52.828747 29.854351,54.246468 28.875881,55.862026 
	C28.652277,56.231216 29.555603,57.282936 29.977081,58.313354 
	C30.333115,59.061127 30.652334,59.516071 31.129122,60.173328 
	C29.200636,62.584358 27.114578,64.793076 25.015347,66.538223 
	C25.002172,62.283844 25.002172,58.493038 25.002172,54.702236 
	C24.249176,54.732769 23.496180,54.763302 22.743183,54.793835 
	C23.169580,59.868130 23.595978,64.942421 24.210747,70.307007 
	C27.363894,70.755951 30.328671,70.914597 33.540977,71.086487 
	C33.540977,74.365479 33.405624,78.111122 33.600231,81.839546 
	C33.692333,83.604111 34.415680,85.335724 34.928860,87.411049 
	C44.667736,97.639236 57.014374,101.370056 70.254158,102.838013 
	C74.160080,103.271088 78.144600,102.995277 82.442932,103.198593 
	C89.371971,105.606766 95.834282,106.265282 102.255478,102.094162 
	C108.718971,99.827866 114.859146,97.417824 121.348572,94.968216 
	C123.712006,93.538765 126.053513,92.448936 127.665466,90.690384 
	C130.238190,87.883675 132.611923,87.612083 135.930496,89.366600 
	C139.529358,91.269302 143.444244,92.574265 147.221329,94.139885 
	C145.342834,96.174179 143.397675,98.151901 141.607758,100.261353 
	C140.270203,101.837685 139.132965,103.583992 137.602234,105.627319 
	C136.912949,106.006424 136.527939,106.012833 136.030975,105.835342 
	C135.608963,105.769218 135.298904,105.886986 134.994797,106.002625 
	C135.000748,106.000511 135.007660,105.989723 134.771957,106.084892 
	C134.354172,106.455956 134.172089,106.731850 133.995300,107.004372 
	C134.000610,107.001007 134.009109,106.991753 133.703125,106.992920 
	C132.927719,107.330940 132.458282,107.667793 131.994720,108.002625 
	C132.000610,108.000610 132.007339,107.990051 131.769821,108.084137 
	C131.350464,108.455971 131.168610,108.733711 130.993698,109.006485 
	C131.000641,109.001518 131.013016,108.989731 130.705994,108.992195 
	C129.928894,109.331421 129.458817,109.668190 128.994690,110.002930 
	C129.000610,110.000916 129.009094,109.991730 128.703217,109.994843 
	C127.927856,110.333542 127.458359,110.669128 126.994736,111.002823 
	C127.000610,111.000916 127.008865,110.991768 126.703308,110.996948 
	C125.928207,111.336235 125.458656,111.670341 124.994858,112.002678 
	C125.000610,112.000916 125.008507,111.991875 124.702515,111.996681 
	C123.926849,112.336266 123.457176,112.671036 122.994034,113.003357 
	C123.000580,113.000916 123.010857,112.991547 122.632919,112.976761 
	C120.498535,113.643303 118.742073,114.324615 116.993042,115.003433 
	C117.000473,115.000946 117.011635,114.989967 116.673470,114.984818 
	C115.554390,115.309433 114.773483,115.639191 113.992577,115.968956 
	C102.840630,117.317268 91.721397,119.238419 80.528954,119.877510 
	C64.377502,120.799767 48.889168,117.350372 34.312092,110.264854 
	C34.015293,110.574768 33.615242,110.805862 33.631580,111.002319 
	C34.303436,119.079788 34.108955,119.330376 26.220819,118.953323 
	C24.414495,118.866982 22.625282,118.422623 20.460278,117.733162 
	C21.871033,116.548630 23.646351,115.766144 25.429453,115.001808 
	C26.823427,114.404259 28.227057,113.829239 29.626392,113.244202 
	C28.743216,111.957321 27.930199,110.614563 26.960300,109.396751 
	C25.530437,107.601395 23.988831,105.895035 21.699860,103.222672 
	C21.215364,102.690414 20.070972,101.232079 18.706688,100.021568 
	C18.051073,99.439850 16.980206,99.326141 16.097385,99.000496 
	C15.971145,98.162064 15.844903,97.323631 15.428261,96.352165 
	C12.481341,92.086761 9.824821,87.954399 6.942349,83.984528 
	C0.290159,66.135521 0.441831,48.769108 12.386341,32.244576 
	C14.011077,30.516346 15.030843,29.043415 16.050610,27.570482 
	C16.050608,27.570482 16.202217,27.207430 16.675205,27.293612 
	C17.518080,26.754702 17.887966,26.129608 18.333790,25.428860 
	C18.409727,25.353203 18.602076,25.258532 18.854267,25.371075 
	C19.167095,25.184208 19.227732,24.884798 19.352327,24.502871 
	C19.416285,24.420353 19.595171,24.312654 19.861830,24.407841 
	C20.215382,24.190262 20.302275,23.877497 20.382500,23.528639 
	C20.375835,23.492544 20.390480,23.420612 20.743473,23.475227 
	C25.525299,20.450359 31.397955,18.892120 32.406631,13.914623 
	C35.521832,12.278500 37.781536,11.091689 40.041241,9.904879 
	C40.204884,9.938652 40.368523,9.972425 41.039612,10.314586 
	C42.967087,10.439548 44.474949,10.503479 45.793766,10.035101 
	C62.092426,4.246625 78.872246,3.849111 95.771324,5.854118 
	C103.283943,6.745459 110.687866,8.552903 118.141129,9.944530 
	C118.141129,9.944530 118.575287,10.005896 118.854309,10.403721 
	C120.089928,11.201937 121.046524,11.602325 122.338341,12.149595 
	C124.896004,12.857091 127.118454,13.417707 129.340897,13.978325 
	C129.480606,13.490943 129.620300,13.003562 129.759995,12.516180 
	C128.170059,11.012864 126.580124,9.509548 125.453285,8.000625 
	C129.880615,7.988067 133.844849,7.981117 137.809097,7.974167 
	C137.845764,10.687224 137.882431,13.400281 137.571716,16.591072 
	C136.411209,16.646948 135.605576,16.209738 134.783020,15.807051 
	C133.716827,15.285082 132.637161,14.790619 131.563309,14.284313 
	C131.309891,14.957295 131.056473,15.630277 130.803055,16.303259 
	C133.175064,17.201750 135.547089,18.100243 137.919098,18.998734 
	C138.122772,19.271935 138.326431,19.545137 138.742432,19.964764 
M127.889397,35.716179 
	C128.425491,35.526173 128.961578,35.336170 129.497665,35.146164 
	C129.372314,34.870667 129.246979,34.595169 129.121628,34.319672 
	C128.569794,34.641590 128.017975,34.963512 127.889397,35.716179 
M132.184860,37.041237 
	C132.277740,37.436504 132.370605,37.831772 132.463486,38.227036 
	C132.582031,38.141380 132.810471,38.040489 132.801056,37.972584 
	C132.745407,37.571293 132.634491,37.177666 132.184860,37.041237 
M29.723450,107.999100 
	C29.984232,108.159325 30.245014,108.319550 30.505798,108.479767 
	C30.343130,108.219887 30.180462,107.960014 29.723450,107.999100 
M27.046774,105.695229 
	C27.076214,106.020477 27.105652,106.345718 27.135090,106.670967 
	C27.245096,106.320343 27.355101,105.969719 27.046774,105.695229 
M25.356226,50.524696 
	C25.152847,50.471775 24.949471,50.418854 24.746094,50.365929 
	C24.876726,50.495415 25.007359,50.624901 25.356226,50.524696 
M32.516220,108.418465 
	C32.516220,108.418465 32.576748,108.522461 32.516220,108.418465 
M135.483856,37.581367 
	C135.483856,37.581367 135.423508,37.477642 135.483856,37.581367 
z"/>
<path fill="#134908" opacity="1.000000" stroke="none" 
	d="
M40.146645,9.558119 
	C37.781536,11.091689 35.521832,12.278500 32.406631,13.914623 
	C31.397955,18.892120 25.525299,20.450359 20.815559,23.195896 
	C20.540756,22.700447 20.594259,22.518593 20.536655,22.384453 
	C20.496845,22.291754 20.246733,22.180824 20.187168,22.221048 
	C18.757706,23.186312 17.341299,24.170914 15.922525,25.152008 
	C15.922525,25.152008 15.937799,25.070669 15.910044,24.779781 
	C15.814651,24.304480 15.747012,24.120064 15.679374,23.935646 
	C15.679374,18.168636 15.679374,12.401626 15.679374,5.891517 
	C23.479935,5.891517 30.859274,5.801320 38.228245,6.036288 
	C38.935871,6.058851 39.578983,8.104745 40.146645,9.558119 
z"/>
<path fill="#13470F" opacity="1.000000" stroke="none" 
	d="
M118.003296,9.605930 
	C110.687866,8.552903 103.283943,6.745459 95.771324,5.854118 
	C78.872246,3.849111 62.092426,4.246625 45.793766,10.035101 
	C44.474949,10.503479 42.967087,10.439548 41.280884,10.382448 
	C65.300034,0.312912 89.901230,0.551204 114.712845,7.862915 
	C115.806679,8.185259 116.816505,8.792692 118.003296,9.605930 
z"/>
<path fill="#13470F" opacity="1.000000" stroke="none" 
	d="
M137.860718,7.640581 
	C133.844849,7.981117 129.880615,7.988067 125.097923,8.037819 
	C123.520691,9.387984 122.761909,10.695348 122.003128,12.002713 
	C121.046524,11.602325 120.089928,11.201937 119.062454,10.472551 
	C119.526993,8.909638 120.062393,7.675721 120.820114,5.929446 
	C125.998085,5.929446 131.523499,5.929446 137.515305,5.944163 
	C137.958588,6.408253 137.935455,6.857625 137.860718,7.640581 
z"/>
<path fill="#B6C4B1" opacity="1.000000" stroke="none" 
	d="
M15.959480,25.399342 
	C17.341299,24.170914 18.757706,23.186312 20.187168,22.221048 
	C20.246733,22.180824 20.496845,22.291754 20.536655,22.384453 
	C20.594259,22.518593 20.540756,22.700447 20.462566,23.141279 
	C20.390480,23.420612 20.375835,23.492544 20.222153,23.620419 
	C19.865643,23.898621 19.707878,24.086740 19.595171,24.312654 
	C19.595171,24.312654 19.416285,24.420353 19.209389,24.582373 
	C18.821369,24.878654 18.687897,25.050034 18.602076,25.258532 
	C18.602076,25.258532 18.409727,25.353203 18.119953,25.565773 
	C17.509695,25.850361 17.189207,25.922377 16.868721,25.994394 
	C16.577959,25.878487 16.287197,25.762579 15.959480,25.399342 
z"/>
<path fill="#134908" opacity="1.000000" stroke="none" 
	d="
M15.796845,27.706724 
	C15.030843,29.043415 14.011077,30.516346 12.645688,32.001362 
	C13.381071,30.623287 14.462076,29.233126 15.796845,27.706724 
z"/>
<path fill="#134908" opacity="1.000000" stroke="none" 
	d="
M16.851845,26.176920 
	C17.189207,25.922377 17.509695,25.850361 18.044018,25.641430 
	C17.887966,26.129608 17.518080,26.754702 16.852261,27.207884 
	C16.616812,26.797121 16.709690,26.571611 16.851845,26.176920 
z"/>
<path fill="#B6C4B1" opacity="1.000000" stroke="none" 
	d="
M15.499745,24.056602 
	C15.747012,24.120064 15.814651,24.304480 15.868808,24.783226 
	C15.676924,24.777557 15.498520,24.477556 15.499745,24.056602 
z"/>
<path fill="#0C4200" opacity="1.000000" stroke="none" 
	d="
M136.142944,106.019234 
	C136.527939,106.012833 136.912949,106.006424 137.584564,105.997650 
	C138.314804,118.987946 138.313858,119.073517 125.583038,118.932243 
	C122.075363,118.893326 118.575195,118.177452 115.158661,117.157120 
	C115.834366,116.024681 116.422997,115.507324 117.011635,114.989967 
	C117.011635,114.989967 117.000473,115.000946 117.371933,115.018715 
	C119.499222,114.354836 121.255035,113.673187 123.010857,112.991547 
	C123.010857,112.991547 123.000580,113.000916 123.298553,112.991547 
	C124.067184,112.652077 124.537842,112.321976 125.008507,111.991875 
	C125.008507,111.991875 125.000610,112.000916 125.299408,111.993134 
	C126.068420,111.654152 126.538643,111.322960 127.008865,110.991760 
	C127.008865,110.991768 127.000610,111.000916 127.299088,110.992706 
	C128.068069,110.653580 128.538589,110.322655 129.009094,109.991730 
	C129.009094,109.991730 129.000610,110.000916 129.297424,109.988541 
	C130.067154,109.647362 130.540085,109.318542 131.013016,108.989731 
	C131.013016,108.989731 131.000641,109.001518 131.226257,108.905746 
	C131.637024,108.536667 131.822174,108.263359 132.007339,107.990051 
	C132.007339,107.990051 132.000610,108.000610 132.299591,107.996231 
	C133.068756,107.658478 133.538925,107.325111 134.009109,106.991745 
	C134.009109,106.991753 134.000610,107.001007 134.228638,106.906258 
	C134.640320,106.537582 134.823990,106.263649 135.007660,105.989723 
	C135.007660,105.989723 135.000748,106.000511 135.283173,106.019203 
	C135.758041,106.031677 135.950485,106.025452 136.142944,106.019234 
z"/>
<path fill="#0D4301" opacity="1.000000" stroke="none" 
	d="
M15.991663,99.458008 
	C16.980206,99.326141 18.051073,99.439850 18.706688,100.021568 
	C20.070972,101.232079 21.215364,102.690414 21.699860,103.222672 
	C23.988831,105.895035 25.530437,107.601395 26.960300,109.396751 
	C27.930199,110.614563 28.743216,111.957321 29.626392,113.244202 
	C28.227057,113.829239 26.823427,114.404259 25.429453,115.001808 
	C23.646351,115.766144 21.871033,116.548630 20.043697,117.720764 
	C19.204809,118.375397 18.414581,118.632561 17.290245,118.608139 
	C16.672651,117.888680 16.389166,117.450813 16.105679,117.012947 
	C16.032433,111.313805 15.959187,105.614670 15.991663,99.458008 
z"/>
<path fill="#0E4402" opacity="1.000000" stroke="none" 
	d="
M120.325867,89.999893 
	C122.488388,88.589935 124.752754,87.311707 126.788452,85.737747 
	C129.533035,83.615715 132.067474,81.269821 135.044266,85.434799 
	C135.243042,85.712898 136.517761,85.221977 137.574814,85.048393 
	C137.907425,85.774284 137.957260,86.540520 138.024139,87.690247 
	C141.153214,89.777603 144.265244,91.481483 147.660156,93.433235 
	C147.859177,93.880333 147.712570,94.006485 147.362274,94.099716 
	C143.444244,92.574265 139.529358,91.269302 135.930496,89.366600 
	C132.611923,87.612083 130.238190,87.883675 127.665466,90.690384 
	C126.053513,92.448936 123.712006,93.538765 120.950760,94.900757 
	C119.940132,94.818977 119.676567,94.765091 119.597794,94.350403 
	C119.963676,92.659691 120.144775,91.329788 120.325867,89.999893 
z"/>
<path fill="#020D00" opacity="1.000000" stroke="none" 
	d="
M116.673470,114.984818 
	C116.422997,115.507324 115.834366,116.024681 115.035065,116.760689 
	C114.545174,116.848297 114.326591,116.650276 114.080612,116.177109 
	C114.773483,115.639191 115.554390,115.309433 116.673470,114.984818 
z"/>
<path fill="#0E4401" opacity="1.000000" stroke="none" 
	d="
M16.000610,117.311829 
	C16.389166,117.450813 16.672651,117.888680 16.975521,118.595268 
	C16.801336,118.882484 16.607771,118.900986 16.123837,118.895126 
	C15.854160,118.450745 15.874850,118.030731 16.000610,117.311829 
z"/>
<path fill="#0F4605" opacity="1.000000" stroke="none" 
	d="
M137.936798,18.667076 
	C135.547089,18.100243 133.175064,17.201750 130.803055,16.303259 
	C131.056473,15.630277 131.309891,14.957295 131.563309,14.284313 
	C132.637161,14.790619 133.716827,15.285082 134.783020,15.807051 
	C135.605576,16.209738 136.411209,16.646948 137.529236,17.041431 
	C137.874237,17.454512 137.914368,17.894966 137.936798,18.667076 
z"/>
<path fill="#050505" opacity="1.000000" stroke="none" 
	d="
M101.932167,101.950417 
	C95.834282,106.265282 89.371971,105.606766 82.277420,102.860001 
	C70.996056,97.541481 59.654819,93.652733 49.684155,87.531509 
	C43.893883,83.976723 39.818424,85.632027 34.853031,87.082268 
	C34.415680,85.335724 33.692333,83.604111 33.600231,81.839546 
	C33.405624,78.111122 33.540977,74.365479 33.540977,71.086487 
	C30.328671,70.914597 27.363894,70.755951 24.522404,70.255142 
	C25.109917,69.296120 25.574144,68.679260 26.390125,68.012329 
	C29.759386,65.667984 32.776894,63.373722 35.794399,61.079460 
	C35.780537,60.709980 35.766678,60.340500 35.752815,59.971020 
	C34.159061,59.971020 32.565304,59.971020 30.971550,59.971020 
	C30.652334,59.516071 30.333115,59.061127 30.158953,58.018833 
	C33.542496,54.613678 34.126423,53.189415 32.925972,51.036232 
	C34.277927,47.416519 33.376339,44.718533 29.111629,42.965073 
	C28.014057,42.188419 27.507122,41.601200 27.000187,41.013985 
	C25.067965,38.659691 23.135740,36.305397 21.064829,33.782120 
	C24.736265,30.163702 28.405287,30.523298 32.798164,32.385872 
	C34.540005,33.185303 35.698456,33.724121 36.912918,33.926071 
	C43.021515,34.941879 49.375301,33.842609 54.230141,40.164875 
	C56.507839,43.131035 62.293377,44.060040 66.656143,44.626446 
	C74.742180,45.676235 83.362984,43.379742 90.157967,50.442463 
	C93.861397,54.291832 98.506958,57.234783 102.357422,60.387283 
	C101.029846,60.440121 100.072464,60.692211 99.048744,60.995281 
	C98.982399,61.046261 98.856071,61.156010 98.485893,61.125923 
	C95.079834,62.126740 92.043961,63.157642 88.760971,64.116188 
	C88.342926,64.028267 88.171982,64.012703 88.073868,63.641453 
	C90.561638,62.034931 92.976570,60.784092 95.779572,59.332249 
	C92.805122,55.391518 90.898499,51.744034 84.987000,51.992382 
	C80.859703,52.165771 76.563240,49.917843 72.452736,48.443619 
	C68.158821,46.903606 64.007858,45.353859 59.646431,48.968697 
	C59.231537,49.604187 59.116085,50.135170 59.000637,50.666149 
	C59.377449,50.586224 59.754265,50.506298 60.495796,50.424946 
	C63.750454,52.021820 66.936813,53.256676 69.455154,55.310596 
	C72.589706,57.867092 75.172783,61.099758 77.996506,64.429848 
	C78.005608,65.598518 78.012215,66.377769 77.620667,67.149750 
	C76.166481,67.056404 75.110443,66.970314 74.002808,66.691628 
	C73.951210,66.499031 74.098999,66.128654 74.513779,66.109215 
	C74.882767,65.446457 74.860222,64.243996 74.787796,64.240997 
	C72.554779,64.148132 70.316887,64.172737 67.717407,64.124557 
	C65.944580,64.428421 64.534096,64.786926 62.802620,65.183929 
	C62.305584,65.799934 62.129539,66.377457 61.719425,67.018311 
	C61.061420,67.296432 60.637486,67.511223 60.105286,68.020828 
	C59.975353,68.523895 59.953686,68.732147 59.751999,68.996796 
	C59.727814,69.051178 59.883640,69.049164 60.300236,69.186356 
	C61.386848,69.507492 62.212692,69.689430 63.410969,69.925911 
	C64.530685,69.928871 65.277969,69.877296 66.464348,69.892426 
	C69.265877,70.103340 71.628326,70.247559 74.137009,70.747726 
	C75.501595,71.072792 76.719933,71.041924 78.104584,71.385315 
	C79.293633,72.903046 80.262566,74.107307 81.403458,75.117325 
	C81.555527,75.251945 82.579414,74.401772 83.519791,74.005074 
	C84.266624,73.985069 84.693237,73.967651 85.480087,73.983688 
	C86.580078,73.735634 87.319817,73.454124 88.489716,73.113312 
	C92.319878,72.684685 95.719894,72.315361 99.516632,72.327843 
	C97.159828,73.522308 94.406281,74.334969 91.652733,75.147636 
	C91.719284,75.393532 91.785828,75.639427 91.852379,75.885323 
	C96.558052,75.885323 101.263733,75.885323 105.779732,76.187180 
	C105.064659,77.968216 104.539261,79.447380 103.746735,80.765114 
	C102.728203,80.396324 101.976799,80.188980 101.225388,79.981628 
	C101.237289,82.137802 101.131149,86.171394 101.278053,86.180634 
	C108.336433,86.624451 103.335052,92.161285 104.715034,94.929688 
	C105.464798,96.433792 102.965797,99.557335 101.932167,101.950417 
M102.833893,96.374107 
	C102.152733,95.893379 101.182991,94.840469 100.833252,95.016853 
	C94.555489,98.183060 88.570488,96.879501 82.611427,94.122559 
	C81.501633,93.609116 80.291061,93.313515 78.389038,92.666245 
	C79.967262,94.632828 81.098511,95.798721 81.948425,97.142555 
	C86.270172,103.975784 97.917191,103.968964 102.833893,96.374107 
M49.348034,74.696419 
	C47.502640,76.838242 42.764126,76.112099 43.076996,80.915604 
	C45.511829,80.915604 47.946186,81.563248 49.668808,80.733414 
	C51.390949,79.903824 52.401173,77.596390 53.723469,75.936790 
	C52.485130,75.389252 51.246792,74.841721 49.348034,74.696419 
M90.566872,91.074562 
	C89.356621,90.973564 88.146378,90.872574 85.576485,90.658119 
	C91.617073,94.950027 96.998886,94.690567 99.626366,91.170815 
	C97.004379,91.170815 94.260277,91.170815 90.566872,91.074562 
z"/>
<path fill="#F9F9F9" opacity="1.000000" stroke="none" 
	d="
M102.727615,60.586533 
	C98.506958,57.234783 93.861397,54.291832 90.157967,50.442463 
	C83.362984,43.379742 74.742180,45.676235 66.656143,44.626446 
	C62.293377,44.060040 56.507839,43.131035 54.230141,40.164875 
	C49.375301,33.842609 43.021515,34.941879 36.912918,33.926071 
	C35.698456,33.724121 34.540005,33.185303 33.201408,32.439621 
	C33.047089,32.077412 33.487774,31.981604 34.081169,31.976404 
	C35.806080,31.605854 36.937595,31.240503 38.069111,30.875154 
	C39.197990,30.706486 40.326866,30.537817 42.176952,30.253498 
	C44.916283,30.133514 46.934410,30.129181 49.118404,30.463123 
	C53.709217,30.801401 58.134159,30.801401 62.724236,30.801401 
	C62.120579,30.266560 61.527241,29.740858 60.535439,28.862116 
	C63.891529,27.193737 66.771828,25.761883 70.067459,24.283203 
	C75.069542,24.936630 79.655510,25.642040 84.243538,26.333731 
	C85.484482,26.520819 86.731689,26.666363 88.189148,26.975254 
	C88.560524,27.185822 88.718788,27.252111 88.995583,27.659616 
	C90.997238,28.792591 92.880356,29.584352 94.199959,30.139181 
	C95.282455,29.408159 96.369987,28.673733 97.712265,27.992115 
	C98.612404,28.151411 99.257790,28.257898 100.548843,28.090649 
	C101.117706,26.660769 101.040909,25.504625 100.928146,23.806911 
	C105.170807,25.747372 108.879593,27.443657 112.588387,29.139944 
	C112.415047,29.733400 112.241714,30.326859 112.068375,30.920315 
	C110.235008,30.551535 108.401642,30.182753 106.337898,29.499401 
	C105.030914,28.867384 103.954308,28.549938 102.877701,28.232492 
	C102.730919,28.629360 102.584137,29.026226 102.437347,29.423094 
	C103.462639,30.115376 104.487930,30.807655 105.894989,31.721039 
	C110.204254,31.951464 114.131744,31.960787 118.228424,32.381042 
	C115.620354,33.419811 112.843109,34.047646 110.011353,34.687801 
	C111.834450,37.121033 113.796211,39.194622 115.112572,41.618694 
	C117.311913,45.668751 115.723343,48.191010 111.321007,48.912819 
	C108.995827,49.294056 106.790062,50.403629 103.885651,51.407127 
	C106.672951,53.958874 108.337631,55.482872 110.081268,57.259438 
	C110.762466,58.638412 111.364716,59.764824 111.826614,61.120480 
	C111.294563,61.715698 110.902870,62.081673 110.153198,62.508026 
	C107.442711,61.931328 105.090187,61.294250 102.697388,60.640625 
	C102.657112,60.624073 102.727615,60.586533 102.727615,60.586533 
z"/>
<path fill="#F7F7F7" opacity="1.000000" stroke="none" 
	d="
M34.928860,87.411049 
	C39.818424,85.632027 43.893883,83.976723 49.684155,87.531509 
	C59.654819,93.652733 70.996056,97.541481 81.927597,102.705750 
	C78.144600,102.995277 74.160080,103.271088 70.254158,102.838013 
	C57.014374,101.370056 44.667736,97.639236 34.928860,87.411049 
z"/>
<path fill="#050505" opacity="1.000000" stroke="none" 
	d="
M102.737663,60.657173 
	C105.090187,61.294250 107.442711,61.931328 110.509796,62.888367 
	C111.466980,63.457088 111.709618,63.705856 111.908127,64.290939 
	C110.103767,67.073555 108.343513,69.519852 105.972649,72.814758 
	C113.037453,72.350258 115.340378,69.231949 114.638405,63.374908 
	C115.008537,62.994610 115.156776,62.842678 115.594490,62.697769 
	C116.486473,62.349571 117.088989,61.994354 117.972565,61.916653 
	C118.843430,63.445976 119.433243,64.697784 120.024323,66.330093 
	C122.026802,67.789597 124.028015,68.868591 126.029236,69.947594 
	C125.870155,70.608932 125.776848,71.814941 125.541321,71.843384 
	C123.989998,72.030739 122.408051,71.964493 120.064270,72.007751 
	C117.746933,74.418449 115.840485,76.651558 114.763039,79.230957 
	C113.793541,81.551933 113.171021,83.427780 110.092514,82.878555 
	C109.422134,82.758957 108.581039,83.596245 107.634346,83.981079 
	C107.450119,83.969345 107.080986,83.976906 106.799515,83.797195 
	C106.301384,82.767700 106.084732,81.917931 106.164124,80.872810 
	C107.309242,79.120224 108.158318,77.562981 109.143288,75.951874 
	C109.184296,75.929680 109.089417,75.961342 108.728851,75.808838 
	C107.597771,75.101089 106.732391,74.577484 105.415718,74.031998 
	C104.191963,73.354553 100.954124,75.264328 103.099457,71.935638 
	C105.685356,70.410240 105.671875,68.804649 103.772812,66.864601 
	C102.019638,65.073593 100.486259,63.067417 98.856071,61.156010 
	C98.856071,61.156010 98.982399,61.046261 99.502007,61.010933 
	C100.926964,60.869461 101.832314,60.763317 102.737663,60.657173 
z"/>
<path fill="#0D4203" opacity="1.000000" stroke="none" 
	d="
M105.868073,81.068161 
	C106.084732,81.917931 106.301384,82.767700 106.903748,84.034317 
	C107.586494,84.618919 107.883537,84.786690 108.110985,84.959167 
	C108.041397,84.963867 108.047729,84.824516 108.129829,85.024467 
	C108.334404,85.487473 108.493217,85.726364 108.992462,86.129166 
	C110.470047,87.709892 111.462746,89.329880 112.860008,90.441231 
	C114.891350,92.056908 117.214371,93.305870 119.413010,94.711212 
	C119.676567,94.765091 119.940132,94.818977 120.601501,94.940323 
	C114.859146,97.417824 108.718971,99.827866 102.255478,102.094162 
	C102.965797,99.557335 105.464798,96.433792 104.715034,94.929688 
	C103.335052,92.161285 108.336433,86.624451 101.278053,86.180634 
	C101.131149,86.171394 101.237289,82.137802 101.225388,79.981628 
	C101.976799,80.188980 102.728203,80.396324 104.055672,80.797607 
	C105.043846,81.017075 105.455956,81.042618 105.868073,81.068161 
z"/>
<path fill="#080B08" opacity="1.000000" stroke="none" 
	d="
M118.059242,31.970108 
	C114.131744,31.960787 110.204254,31.951464 106.181534,31.313807 
	C106.246979,30.394972 106.407631,30.104471 106.568275,29.813971 
	C108.401642,30.182753 110.235008,30.551535 112.068375,30.920315 
	C112.241714,30.326859 112.415047,29.733400 112.588387,29.139944 
	C108.879593,27.443657 105.170807,25.747372 100.928146,23.806911 
	C101.040909,25.504625 101.117706,26.660769 100.391464,27.733206 
	C99.476791,27.414503 99.365158,27.179506 98.879898,26.601498 
	C98.907104,25.456549 99.307938,24.654606 99.420471,23.549555 
	C96.022903,22.723833 92.913643,22.201220 89.804382,21.678606 
	C89.756180,22.003180 89.707985,22.327751 89.659782,22.652323 
	C92.457748,23.383070 95.255714,24.113819 98.424088,25.049887 
	C98.968971,25.748590 99.143456,26.241974 98.983856,27.238819 
	C98.252365,27.807955 97.854950,27.873631 97.457527,27.939304 
	C96.369987,28.673733 95.282455,29.408159 94.199959,30.139181 
	C92.880356,29.584352 90.997238,28.792591 89.004234,27.246925 
	C88.588730,24.311602 88.283112,22.130182 87.977486,19.948763 
	C99.751244,20.194019 110.733147,23.155451 120.459198,29.767265 
	C118.633987,29.746405 117.079185,29.455412 115.524376,29.164421 
	C115.460869,29.467480 115.397362,29.770538 115.333855,30.073597 
	C116.199234,30.727699 117.064613,31.381802 117.975906,32.046173 
	C118.021812,32.056438 118.059242,31.970108 118.059242,31.970108 
z"/>
<path fill="#F3F1F4" opacity="1.000000" stroke="none" 
	d="
M119.597794,94.350403 
	C117.214371,93.305870 114.891350,92.056908 112.860008,90.441231 
	C111.462746,89.329880 110.470047,87.709892 108.949768,85.904121 
	C108.575836,85.137383 108.390747,84.915222 108.047729,84.824516 
	C108.047729,84.824516 108.041397,84.963867 108.158691,84.666321 
	C108.123512,84.243454 107.971046,84.118134 107.818573,83.992821 
	C108.581039,83.596245 109.422134,82.758957 110.092514,82.878555 
	C113.171021,83.427780 113.793541,81.551933 114.763039,79.230957 
	C115.840485,76.651558 117.746933,74.418449 119.648712,72.031105 
	C120.047340,77.712410 120.089722,83.397171 120.228989,89.540916 
	C120.144775,91.329788 119.963676,92.659691 119.597794,94.350403 
z"/>
<path fill="#121212" opacity="1.000000" stroke="none" 
	d="
M110.002312,57.006874 
	C108.337631,55.482872 106.672951,53.958874 103.885651,51.407127 
	C106.790062,50.403629 108.995827,49.294056 111.321007,48.912819 
	C115.723343,48.191010 117.311913,45.668751 115.112572,41.618694 
	C113.796211,39.194622 111.834450,37.121033 110.011353,34.687801 
	C112.843109,34.047646 115.620354,33.419811 118.228424,32.381042 
	C118.059242,31.970108 118.021812,32.056438 118.333839,32.219421 
	C119.410286,32.199051 120.174713,32.015701 120.962952,32.227570 
	C121.036713,33.412708 121.086647,34.202621 121.136581,34.992538 
	C121.081795,35.739788 121.027008,36.487041 120.939407,37.824783 
	C120.906586,38.415279 120.831718,38.842548 120.831711,38.842545 
	C120.606552,39.084206 120.381386,39.325871 119.779190,40.034107 
	C118.297226,44.322308 117.192284,48.143940 115.693352,52.121861 
	C111.633820,51.726189 109.164734,52.514488 110.002312,57.006874 
z"/>
<path fill="#101010" opacity="1.000000" stroke="none" 
	d="
M69.652122,24.330030 
	C66.771828,25.761883 63.891529,27.193737 60.535439,28.862116 
	C61.527241,29.740858 62.120579,30.266560 62.724236,30.801401 
	C58.134159,30.801401 53.709217,30.801401 49.292671,30.130188 
	C52.188625,28.229464 55.076176,26.999954 57.888977,25.802273 
	C56.164028,24.568487 55.093445,23.802746 54.022865,23.037006 
	C57.379017,22.344870 60.735172,21.652733 64.893707,20.982817 
	C67.014771,22.113367 68.333443,23.221699 69.652122,24.330030 
z"/>
<path fill="#080B08" opacity="1.000000" stroke="none" 
	d="
M70.067459,24.283203 
	C68.333443,23.221699 67.014771,22.113367 65.292114,20.980682 
	C66.965240,20.625685 69.042358,20.295044 71.665321,20.190664 
	C72.576622,20.403450 72.942070,20.389971 73.307518,20.376492 
	C72.869652,20.235861 72.431778,20.095230 71.993912,19.954597 
	C76.815849,19.762144 81.637779,19.569693 86.416542,19.725761 
	C83.747284,23.076118 86.250038,24.861423 87.976021,26.830975 
	C86.731689,26.666363 85.484482,26.520819 84.243538,26.333731 
	C79.655510,25.642040 75.069542,24.936630 70.067459,24.283203 
z"/>
<path fill="#0F200D" opacity="1.000000" stroke="none" 
	d="
M53.686245,23.162220 
	C55.093445,23.802746 56.164028,24.568487 57.888977,25.802273 
	C55.076176,26.999954 52.188625,28.229464 49.126801,29.791910 
	C46.934410,30.129181 44.916283,30.133514 42.474705,30.053326 
	C45.817375,27.741680 49.583500,25.514557 53.686245,23.162220 
z"/>
<path fill="#104206" opacity="1.000000" stroke="none" 
	d="
M31.129120,60.173328 
	C32.565304,59.971020 34.159061,59.971020 35.752815,59.971020 
	C35.766678,60.340500 35.780537,60.709980 35.794399,61.079460 
	C32.776894,63.373722 29.759386,65.667984 26.171274,67.886208 
	C25.409952,67.540710 25.219236,67.271255 25.028521,67.001793 
	C27.114578,64.793076 29.200636,62.584358 31.129120,60.173328 
z"/>
<path fill="#052000" opacity="1.000000" stroke="none" 
	d="
M25.015347,66.538223 
	C25.219236,67.271255 25.409952,67.540710 25.819519,67.936295 
	C25.574144,68.679260 25.109917,69.296120 24.334034,69.964844 
	C23.595978,64.942421 23.169580,59.868130 22.743183,54.793835 
	C23.496180,54.763302 24.249176,54.732769 25.002172,54.702236 
	C25.002172,58.493038 25.002172,62.283844 25.015347,66.538223 
z"/>
<path fill="#D8D7D9" opacity="1.000000" stroke="none" 
	d="
M116.087334,51.965569 
	C117.192284,48.143940 118.297226,44.322308 119.699356,40.271801 
	C120.083397,44.743103 120.170258,49.443287 120.024979,54.474892 
	C119.613403,54.835609 119.433975,54.864895 119.172272,54.656731 
	C118.979263,54.294491 118.868515,54.169693 118.696098,53.759090 
	C118.102493,53.274426 117.570549,53.075562 116.970764,52.623787 
	C116.586945,52.224667 116.270973,52.078457 115.992813,51.921799 
	C116.030624,51.911350 116.087334,51.965569 116.087334,51.965569 
z"/>
<path fill="#0F4605" opacity="1.000000" stroke="none" 
	d="
M122.338333,12.149593 
	C122.761909,10.695348 123.520691,9.387984 124.634834,8.043427 
	C126.580124,9.509548 128.170059,11.012864 129.759995,12.516180 
	C129.620300,13.003562 129.480606,13.490943 129.340897,13.978325 
	C127.118454,13.417707 124.896004,12.857091 122.338333,12.149593 
z"/>
<path fill="#55734D" opacity="1.000000" stroke="none" 
	d="
M119.254547,54.894176 
	C119.433975,54.864895 119.613403,54.835609 120.027809,54.946102 
	C120.522911,55.547077 120.783051,56.008270 121.025925,57.118061 
	C121.053864,58.493149 121.099083,59.219643 121.144302,59.946133 
	C121.113388,61.028732 121.082474,62.111336 121.056549,63.925262 
	C121.039467,65.093994 121.017387,65.531410 120.751587,65.997490 
	C120.507858,66.026161 120.023056,65.949593 120.023056,65.949593 
	C119.433243,64.697784 118.843430,63.445976 118.033173,61.967628 
	C117.812721,61.741085 117.786095,61.899109 118.165298,61.887604 
	C118.775269,60.406197 119.006035,58.936298 119.395874,57.287033 
	C119.383545,56.713348 119.212151,56.319023 119.058174,55.659595 
	C119.135246,55.227718 119.194893,55.060947 119.254547,54.894176 
z"/>
<path fill="#104206" opacity="1.000000" stroke="none" 
	d="
M32.636017,51.187737 
	C34.126423,53.189415 33.542496,54.613678 30.122137,57.726006 
	C29.555603,57.282936 28.652277,56.231216 28.875881,55.862026 
	C29.854351,54.246468 31.159470,52.828747 32.636017,51.187737 
z"/>
<path fill="#101010" opacity="1.000000" stroke="none" 
	d="
M88.189148,26.975254 
	C86.250038,24.861423 83.747284,23.076118 86.727150,20.009113 
	C87.080933,19.943947 87.529541,19.940672 87.753510,19.944717 
	C88.283112,22.130182 88.588730,24.311602 88.885696,26.905712 
	C88.718788,27.252111 88.560524,27.185822 88.189148,26.975254 
z"/>
<path fill="#0F0F0F" opacity="1.000000" stroke="none" 
	d="
M120.024323,66.330093 
	C120.023056,65.949593 120.507858,66.026161 121.031403,66.191208 
	C122.703140,66.901192 123.851326,67.446136 124.999519,67.991089 
	C125.318344,68.450470 125.637169,68.909851 125.992615,69.658417 
	C124.028015,68.868591 122.026802,67.789597 120.024323,66.330093 
z"/>
<path fill="#104206" opacity="1.000000" stroke="none" 
	d="
M26.999832,41.403557 
	C27.507122,41.601200 28.014057,42.188419 28.759068,42.958035 
	C28.484921,44.667374 27.972702,46.194313 27.460482,47.721252 
	C27.065058,47.600864 26.669634,47.480480 26.274210,47.360092 
	C26.515966,45.504440 26.757721,43.648785 26.999832,41.403557 
z"/>
<path fill="#0E4402" opacity="1.000000" stroke="none" 
	d="
M124.964569,67.653061 
	C123.851326,67.446136 122.703140,66.901192 121.275131,66.162537 
	C121.017387,65.531410 121.039467,65.093994 121.095428,64.329681 
	C122.396088,65.106857 123.662857,66.210953 124.964569,67.653061 
z"/>
<path fill="#F9F9F9" opacity="1.000000" stroke="none" 
	d="
M120.939133,31.832352 
	C120.174713,32.015701 119.410286,32.199051 118.287933,32.209152 
	C117.064613,31.381802 116.199234,30.727699 115.333855,30.073597 
	C115.397362,29.770538 115.460869,29.467480 115.524376,29.164421 
	C117.079185,29.455412 118.633987,29.746405 120.573059,30.103045 
	C120.957321,30.168694 120.986526,30.609138 120.985107,31.000328 
	C120.983681,31.391518 120.939133,31.832352 120.939133,31.832352 
z"/>
<path fill="#0E4402" opacity="1.000000" stroke="none" 
	d="
M120.962952,32.227570 
	C120.939133,31.832352 120.983681,31.391518 121.087524,31.195829 
	C122.020905,31.651003 122.850449,32.301865 123.679993,32.952728 
	C123.043449,33.606949 122.406914,34.261169 121.453476,34.953964 
	C121.086647,34.202621 121.036713,33.412708 120.962952,32.227570 
z"/>
<path fill="#709368" opacity="1.000000" stroke="none" 
	d="
M37.991341,30.524151 
	C36.937595,31.240503 35.806080,31.605854 34.303818,31.940744 
	C34.310085,29.154800 35.362682,27.947372 37.991341,30.524151 
z"/>
<path fill="#020D00" opacity="1.000000" stroke="none" 
	d="
M122.632919,112.976761 
	C121.255035,113.673187 119.499222,114.354836 117.364510,115.021210 
	C118.742073,114.324615 120.498535,113.643303 122.632919,112.976761 
z"/>
<path fill="#0E4402" opacity="1.000000" stroke="none" 
	d="
M127.677765,35.500809 
	C128.017975,34.963512 128.569794,34.641590 129.121628,34.319672 
	C129.246979,34.595169 129.372314,34.870667 129.497665,35.146164 
	C128.961578,35.336170 128.425491,35.526173 127.677765,35.500809 
z"/>
<path fill="#0E4402" opacity="1.000000" stroke="none" 
	d="
M132.363525,36.911346 
	C132.634491,37.177666 132.745407,37.571293 132.801056,37.972584 
	C132.810471,38.040489 132.582031,38.141380 132.463486,38.227036 
	C132.370605,37.831772 132.277740,37.436504 132.363525,36.911346 
z"/>
<path fill="#0D4301" opacity="1.000000" stroke="none" 
	d="
M29.870621,107.849617 
	C30.180462,107.960014 30.343130,108.219887 30.505796,108.479767 
	C30.245014,108.319550 29.984232,108.159325 29.870621,107.849617 
z"/>
<path fill="#0D4301" opacity="1.000000" stroke="none" 
	d="
M27.255939,105.657166 
	C27.355101,105.969719 27.245096,106.320343 27.135090,106.670967 
	C27.105652,106.345718 27.076214,106.020477 27.255939,105.657166 
z"/>
<path fill="#0E4402" opacity="1.000000" stroke="none" 
	d="
M121.362503,59.757187 
	C121.099083,59.219643 121.053864,58.493149 121.064514,57.406166 
	C121.273819,57.886528 121.427261,58.727386 121.362503,59.757187 
z"/>
<path fill="#020D00" opacity="1.000000" stroke="none" 
	d="
M133.703125,106.992920 
	C133.538925,107.325111 133.068756,107.658478 132.293716,107.998245 
	C132.458282,107.667793 132.927719,107.330940 133.703125,106.992920 
z"/>
<path fill="#020D00" opacity="1.000000" stroke="none" 
	d="
M130.705994,108.992188 
	C130.540085,109.318542 130.067154,109.647362 129.291489,109.990562 
	C129.458817,109.668190 129.928894,109.331421 130.705994,108.992188 
z"/>
<path fill="#020D00" opacity="1.000000" stroke="none" 
	d="
M128.703217,109.994843 
	C128.538589,110.322655 128.068069,110.653580 127.293213,110.994614 
	C127.458359,110.669128 127.927856,110.333542 128.703217,109.994843 
z"/>
<path fill="#020D00" opacity="1.000000" stroke="none" 
	d="
M126.703308,110.996948 
	C126.538643,111.322960 126.068420,111.654152 125.293648,111.994896 
	C125.458656,111.670341 125.928207,111.336235 126.703308,110.996948 
z"/>
<path fill="#020D00" opacity="1.000000" stroke="none" 
	d="
M124.702515,111.996681 
	C124.537842,112.321976 124.067184,112.652077 123.292007,112.993988 
	C123.457176,112.671036 123.926849,112.336266 124.702515,111.996681 
z"/>
<path fill="#0E4402" opacity="1.000000" stroke="none" 
	d="
M120.972290,39.019745 
	C120.831718,38.842548 120.906586,38.415279 120.929886,38.199425 
	C121.228928,38.311783 121.504684,38.639999 121.780434,38.968208 
	C121.557907,39.044456 121.335388,39.120701 120.972290,39.019745 
z"/>
<path fill="#104206" opacity="1.000000" stroke="none" 
	d="
M25.247108,50.639542 
	C25.007359,50.624901 24.876726,50.495415 24.746094,50.365929 
	C24.949471,50.418854 25.152847,50.471775 25.247108,50.639542 
z"/>
<path fill="#020D00" opacity="1.000000" stroke="none" 
	d="
M131.769821,108.084137 
	C131.822174,108.263359 131.637024,108.536667 131.219299,108.910706 
	C131.168610,108.733711 131.350464,108.455971 131.769821,108.084137 
z"/>
<path fill="#0D4301" opacity="1.000000" stroke="none" 
	d="
M32.546486,108.470459 
	C32.576748,108.522461 32.516220,108.418465 32.546486,108.470459 
z"/>
<path fill="#134908" opacity="1.000000" stroke="none" 
	d="
M19.861830,24.407841 
	C19.707878,24.086740 19.865643,23.898621 20.228817,23.656513 
	C20.302275,23.877497 20.215382,24.190262 19.861830,24.407841 
z"/>
<path fill="#020D00" opacity="1.000000" stroke="none" 
	d="
M134.771957,106.084892 
	C134.823990,106.263649 134.640320,106.537582 134.223328,106.909622 
	C134.172089,106.731850 134.354172,106.455956 134.771957,106.084892 
z"/>
<path fill="#020D00" opacity="1.000000" stroke="none" 
	d="
M136.030975,105.835342 
	C135.950485,106.025452 135.758041,106.031677 135.277222,106.021317 
	C135.298904,105.886986 135.608963,105.769218 136.030975,105.835342 
z"/>
<path fill="#134908" opacity="1.000000" stroke="none" 
	d="
M18.854267,25.371075 
	C18.687897,25.050034 18.821369,24.878654 19.145432,24.664890 
	C19.227732,24.884798 19.167095,25.184208 18.854267,25.371075 
z"/>
<path fill="#0E4402" opacity="1.000000" stroke="none" 
	d="
M135.453674,37.529503 
	C135.423508,37.477642 135.483856,37.581367 135.453674,37.529503 
z"/>
<path fill="#FFFFFF" opacity="1.000000" stroke="none" 
	d="
M98.485893,61.125923 
	C100.486259,63.067417 102.019638,65.073593 103.772812,66.864601 
	C105.671875,68.804649 105.685356,70.410240 102.738220,71.855919 
	C101.076408,71.814430 100.098152,71.880241 99.119904,71.946045 
	C95.719894,72.315361 92.319878,72.684685 88.367844,72.590752 
	C87.684998,71.794563 87.554176,71.461624 87.301559,70.949493 
	C86.844971,70.770363 86.510170,70.770432 86.032593,70.049652 
	C84.684120,68.514168 83.478416,67.699524 82.245132,66.899422 
	C82.217545,66.913956 82.050797,66.982750 81.708885,66.990631 
	C80.910965,66.999161 80.454956,66.999809 79.863495,66.665527 
	C79.150040,65.567215 78.572021,64.803818 77.994011,64.040428 
	C75.172783,61.099758 72.589706,57.867092 69.455154,55.310596 
	C66.936813,53.256676 63.750454,52.021820 60.448753,50.034470 
	C60.006622,49.385002 59.976250,49.124592 59.945881,48.864185 
	C64.007858,45.353859 68.158821,46.903606 72.452736,48.443619 
	C76.563240,49.917843 80.859703,52.165771 84.987000,51.992382 
	C90.898499,51.744034 92.805122,55.391518 95.779572,59.332249 
	C92.976570,60.784092 90.561638,62.034931 88.077629,63.886139 
	C88.135391,64.764091 88.262238,65.041679 88.389076,65.319267 
	C88.595413,64.942360 88.801743,64.565453 89.008080,64.188545 
	C92.043961,63.157642 95.079834,62.126740 98.485893,61.125923 
z"/>
<path fill="#F5F5F5" opacity="1.000000" stroke="none" 
	d="
M102.720367,96.731133 
	C97.917191,103.968964 86.270172,103.975784 81.948425,97.142555 
	C81.098511,95.798721 79.967262,94.632828 78.389038,92.666245 
	C80.291061,93.313515 81.501633,93.609116 82.611427,94.122559 
	C88.570488,96.879501 94.555489,98.183060 100.833252,95.016853 
	C101.182991,94.840469 102.152733,95.893379 102.720367,96.731133 
z"/>
<path fill="#ECECEC" opacity="1.000000" stroke="none" 
	d="
M49.678242,74.495300 
	C51.246792,74.841721 52.485130,75.389252 53.723473,75.936783 
	C52.401173,77.596390 51.390949,79.903824 49.668808,80.733414 
	C47.946186,81.563248 45.511829,80.915604 43.076996,80.915604 
	C42.764126,76.112099 47.502640,76.838242 49.678242,74.495300 
z"/>
<path fill="#DEDEDE" opacity="1.000000" stroke="none" 
	d="
M99.516632,72.327850 
	C100.098152,71.880241 101.076408,71.814430 102.415894,71.828339 
	C100.954124,75.264328 104.191963,73.354553 105.476532,74.333206 
	C105.982224,75.065979 105.975815,75.475647 105.969406,75.885323 
	C101.263733,75.885323 96.558052,75.885323 91.852379,75.885323 
	C91.785828,75.639427 91.719284,75.393532 91.652733,75.147636 
	C94.406281,74.334969 97.159828,73.522308 99.516632,72.327850 
z"/>
<path fill="#CFCFCF" opacity="1.000000" stroke="none" 
	d="
M91.041519,91.122688 
	C94.260277,91.170815 97.004379,91.170815 99.626366,91.170815 
	C96.998886,94.690567 91.617073,94.950027 85.576485,90.658119 
	C88.146378,90.872574 89.356621,90.973564 91.041519,91.122688 
z"/>
<path fill="#0F0F0F" opacity="1.000000" stroke="none" 
	d="
M105.779732,76.187180 
	C105.975815,75.475647 105.982224,75.065979 105.927811,74.355095 
	C106.732391,74.577484 107.597771,75.101089 108.731598,75.812347 
	C109.000046,76.000008 109.007401,76.005737 109.007401,76.005737 
	C108.158318,77.562981 107.309242,79.120224 106.164124,80.872818 
	C105.455956,81.042618 105.043846,81.017075 104.322792,80.959045 
	C104.539261,79.447380 105.064659,77.968216 105.779732,76.187180 
z"/>
<path fill="#101010" opacity="1.000000" stroke="none" 
	d="
M86.175377,70.770508 
	C86.510170,70.770432 86.844971,70.770363 87.085686,71.239792 
	C86.367691,72.456268 85.743767,73.203247 85.119843,73.950226 
	C84.693237,73.967651 84.266624,73.985069 83.326111,73.757645 
	C82.225075,73.030212 81.637955,72.547607 81.316833,71.899918 
	C82.078751,70.850075 82.574684,69.965302 83.057114,69.067383 
	C83.043602,69.054230 83.075264,69.071793 83.357063,69.169296 
	C84.484367,69.768028 85.329872,70.269272 86.175377,70.770508 
z"/>
<path fill="#D8D8D8" opacity="1.000000" stroke="none" 
	d="
M81.050835,72.065002 
	C81.637955,72.547607 82.225075,73.030212 83.005890,73.760239 
	C82.579414,74.401772 81.555527,75.251945 81.403458,75.117325 
	C80.262566,74.107307 79.293633,72.903046 78.447525,71.393600 
	C78.825760,70.919655 79.027359,70.811684 79.517273,70.753159 
	C80.192276,70.801674 80.578987,70.800758 80.990616,71.115891 
	C81.027306,71.642952 81.039070,71.853981 81.050835,72.065002 
z"/>
<path fill="#535453" opacity="1.000000" stroke="none" 
	d="
M61.953499,66.954979 
	C62.129539,66.377457 62.305584,65.799934 63.065941,65.450653 
	C65.456070,65.743866 67.261887,65.808853 69.487900,65.888641 
	C71.305061,65.978508 72.702034,66.053581 74.098999,66.128654 
	C74.098999,66.128654 73.951210,66.499031 73.686783,66.785484 
	C72.983437,67.083405 72.544518,67.094879 71.651352,67.014992 
	C68.115906,66.934082 65.034698,66.944527 61.953499,66.954979 
z"/>
<path fill="#A1A1A1" opacity="1.000000" stroke="none" 
	d="
M74.513779,66.109215 
	C72.702034,66.053581 71.305061,65.978508 69.372490,65.672638 
	C68.584503,65.020958 68.332123,64.600082 68.079742,64.179199 
	C70.316887,64.172737 72.554779,64.148132 74.787796,64.240997 
	C74.860222,64.243996 74.882767,65.446457 74.513779,66.109215 
z"/>
<path fill="#929292" opacity="1.000000" stroke="none" 
	d="
M61.719429,67.018311 
	C65.034698,66.944527 68.115906,66.934082 71.579285,67.211342 
	C71.961464,67.499054 72.064461,67.904907 71.831215,68.025528 
	C71.426483,68.181343 71.255005,68.216545 70.650055,68.181915 
	C68.463943,68.127350 66.711288,68.142616 64.564842,68.092560 
	C62.851879,67.926834 61.532715,67.826424 60.213551,67.726013 
	C60.637486,67.511223 61.061420,67.296432 61.719429,67.018311 
z"/>
<path fill="#7D7D7D" opacity="1.000000" stroke="none" 
	d="
M67.717407,64.124557 
	C68.332123,64.600082 68.584503,65.020958 68.952293,65.657837 
	C67.261887,65.808853 65.456070,65.743866 63.386929,65.412155 
	C64.534096,64.786926 65.944580,64.428421 67.717407,64.124557 
z"/>
<path fill="#2F2F2F" opacity="1.000000" stroke="none" 
	d="
M60.105286,68.020828 
	C61.532715,67.826424 62.851879,67.926834 64.573105,68.258835 
	C64.975159,68.490433 64.974785,68.824203 64.683456,68.897758 
	C63.940926,69.271332 63.489731,69.571342 63.038536,69.871361 
	C62.212692,69.689430 61.386848,69.507492 60.274490,69.158539 
	C59.987980,68.991524 59.932014,68.940399 59.932014,68.940399 
	C59.953686,68.732147 59.975353,68.523895 60.105286,68.020828 
z"/>
<path fill="#EDEDED" opacity="1.000000" stroke="none" 
	d="
M73.990768,70.391785 
	C71.628326,70.247559 69.265877,70.103340 66.460526,69.727600 
	C66.017609,69.496086 66.031311,69.166649 66.444908,69.099167 
	C68.251007,68.961197 69.643517,68.890717 71.393127,68.887695 
	C72.474861,69.010704 73.199501,69.066254 73.929428,69.439888 
	C73.953407,69.969238 73.972084,70.180504 73.990768,70.391785 
z"/>
<path fill="#F2F2F2" opacity="1.000000" stroke="none" 
	d="
M72.064461,67.904907 
	C72.064461,67.904907 71.961464,67.499054 72.033539,67.302704 
	C72.544518,67.094879 72.983437,67.083405 73.738373,66.978081 
	C75.110443,66.970314 76.166481,67.056404 77.679092,67.160583 
	C78.135674,67.178680 78.244286,67.130241 78.356567,67.392456 
	C78.612160,67.779678 78.755470,67.904678 78.541611,68.009628 
	C77.708359,68.023140 77.232277,68.056702 76.365173,68.113708 
	C74.670929,68.059746 73.367691,67.982330 72.064461,67.904907 
z"/>
<path fill="#979797" opacity="1.000000" stroke="none" 
	d="
M74.137009,70.747719 
	C73.972084,70.180504 73.953407,69.969238 74.454102,69.352173 
	C75.684975,68.948479 76.396484,68.950584 76.894028,69.153976 
	C77.529694,69.804741 78.379333,70.254234 79.228966,70.703720 
	C79.027359,70.811684 78.825760,70.919655 78.281212,71.019348 
	C76.719933,71.041924 75.501595,71.072792 74.137009,70.747719 
z"/>
<path fill="#F6F6F6" opacity="1.000000" stroke="none" 
	d="
M85.480087,73.983688 
	C85.743767,73.203247 86.367691,72.456268 87.207474,71.418983 
	C87.554176,71.461624 87.684998,71.794563 87.937698,72.650055 
	C87.319817,73.454124 86.580078,73.735634 85.480087,73.983688 
z"/>
<path fill="#1E1E1E" opacity="1.000000" stroke="none" 
	d="
M78.244286,67.130241 
	C78.244286,67.130241 78.135674,67.178680 78.077248,67.167847 
	C78.012215,66.377769 78.005608,65.598518 77.996506,64.429848 
	C78.572021,64.803818 79.150040,65.567215 79.427628,66.735733 
	C78.832901,67.137321 78.538597,67.133781 78.244286,67.130241 
z"/>
<path fill="#D1D1D1" opacity="1.000000" stroke="none" 
	d="
M66.031311,69.166649 
	C66.031311,69.166649 66.017609,69.496086 66.021439,69.660904 
	C65.277969,69.877296 64.530685,69.928871 63.410965,69.925903 
	C63.489731,69.571342 63.940926,69.271332 64.948761,68.979744 
	C65.680702,69.047668 65.856010,69.107162 66.031311,69.166649 
z"/>
<path fill="#0F0F0F" opacity="1.000000" stroke="none" 
	d="
M102.697388,60.640625 
	C101.832314,60.763317 100.926964,60.869461 99.568352,60.959953 
	C100.072464,60.692211 101.029846,60.440121 102.357422,60.387283 
	C102.727615,60.586533 102.657112,60.624073 102.697388,60.640625 
z"/>
<path fill="#F6F6F6" opacity="1.000000" stroke="none" 
	d="
M88.760971,64.116188 
	C88.801743,64.565453 88.595413,64.942360 88.389076,65.319267 
	C88.262238,65.041679 88.135391,64.764091 88.004791,64.241821 
	C88.171982,64.012703 88.342926,64.028267 88.760971,64.116188 
z"/>
<path fill="#FAFAF9" opacity="1.000000" stroke="none" 
	d="
M59.646431,48.968697 
	C59.976250,49.124592 60.006622,49.385002 60.084034,50.035896 
	C59.754265,50.506298 59.377449,50.586224 59.000637,50.666149 
	C59.116085,50.135170 59.231537,49.604187 59.646431,48.968697 
z"/>
<path fill="#2F2F2F" opacity="1.000000" stroke="none" 
	d="
M60.013725,69.019333 
	C59.883640,69.049164 59.727814,69.051178 59.751999,68.996796 
	C59.932014,68.940399 59.987980,68.991524 60.013725,69.019333 
z"/>
<path fill="#ECECEC" opacity="1.000000" stroke="none" 
	d="
M110.081268,57.259438 
	C109.164734,52.514488 111.633820,51.726189 115.693352,52.121861 
	C116.087334,51.965569 116.030624,51.911350 115.822586,52.213585 
	C116.083427,52.989468 116.552315,53.463116 117.057182,54.244160 
	C117.322624,54.876812 117.552086,55.202061 117.776733,55.928452 
	C117.776657,58.186100 117.781372,60.042603 117.786095,61.899109 
	C117.786095,61.899109 117.812721,61.741085 117.752113,61.690109 
	C117.088989,61.994354 116.486473,62.349571 115.429893,62.405533 
	C113.972878,61.701260 112.969917,61.296249 111.966965,60.891235 
	C111.364716,59.764824 110.762466,58.638412 110.081268,57.259438 
z"/>
<path fill="#050505" opacity="1.000000" stroke="none" 
	d="
M111.826614,61.120483 
	C112.969917,61.296249 113.972878,61.701260 115.140427,62.398514 
	C115.156776,62.842678 115.008537,62.994610 114.405960,63.198101 
	C113.285172,63.484650 112.618713,63.719635 111.952248,63.954620 
	C111.709618,63.705856 111.466980,63.457088 110.867760,62.827988 
	C110.902870,62.081673 111.294563,61.715698 111.826614,61.120483 
z"/>
<path fill="#080B08" opacity="1.000000" stroke="none" 
	d="
M105.799774,31.092705 
	C104.487930,30.807655 103.462639,30.115376 102.437347,29.423094 
	C102.584137,29.026226 102.730919,28.629360 102.877701,28.232492 
	C103.954308,28.549938 105.030914,28.867384 106.337898,29.499401 
	C106.407631,30.104471 106.246979,30.394972 105.799774,31.092705 
z"/>
<path fill="#E6E6E6" opacity="1.000000" stroke="none" 
	d="
M97.712265,27.992115 
	C97.854950,27.873631 98.252365,27.807955 98.972153,27.276846 
	C99.294510,26.811413 99.253525,26.944508 99.253525,26.944508 
	C99.365158,27.179506 99.476791,27.414503 99.745804,28.006943 
	C99.257790,28.257898 98.612404,28.151411 97.712265,27.992115 
z"/>
<path fill="#E7E7E7" opacity="1.000000" stroke="none" 
	d="
M111.908127,64.290939 
	C112.618713,63.719635 113.285172,63.484650 114.184082,63.426468 
	C115.340378,69.231949 113.037453,72.350258 105.972649,72.814758 
	C108.343513,69.519852 110.103767,67.073555 111.908127,64.290939 
z"/>
<path fill="#0F0F0F" opacity="1.000000" stroke="none" 
	d="
M107.634346,83.981079 
	C107.971046,84.118134 108.123512,84.243454 108.228279,84.661621 
	C107.883537,84.786690 107.586494,84.618919 107.185226,84.214027 
	C107.080986,83.976906 107.450119,83.969345 107.634346,83.981079 
z"/>
<path fill="#0F0F0F" opacity="1.000000" stroke="none" 
	d="
M108.997292,75.996506 
	C109.089417,75.961342 109.184296,75.929680 109.143295,75.951874 
	C109.007401,76.005737 109.000046,76.000008 108.997292,75.996506 
z"/>
<path fill="#0F0F0F" opacity="1.000000" stroke="none" 
	d="
M108.129829,85.024467 
	C108.390747,84.915222 108.575836,85.137383 108.645691,85.716034 
	C108.493217,85.726364 108.334404,85.487473 108.129829,85.024467 
z"/>
<path fill="#E6E6E6" opacity="1.000000" stroke="none" 
	d="
M98.053680,24.844568 
	C95.255714,24.113819 92.457748,23.383070 89.659782,22.652323 
	C89.707985,22.327751 89.756180,22.003180 89.804382,21.678606 
	C92.913643,22.201220 96.022903,22.723833 99.099075,23.642498 
	C98.728554,24.307224 98.391121,24.575897 98.053680,24.844568 
z"/>
<path fill="#F9F9F9" opacity="1.000000" stroke="none" 
	d="
M98.424088,25.049889 
	C98.391121,24.575897 98.728554,24.307224 99.387375,23.945606 
	C99.307938,24.654606 98.907104,25.456549 98.879898,26.601498 
	C99.253525,26.944508 99.294510,26.811413 99.306221,26.773384 
	C99.143456,26.241974 98.968971,25.748590 98.424088,25.049889 
z"/>
<path fill="#101010" opacity="1.000000" stroke="none" 
	d="
M71.990280,19.972118 
	C72.431778,20.095230 72.869652,20.235861 73.307518,20.376492 
	C72.942070,20.389971 72.576622,20.403450 72.081238,20.207047 
	C71.951302,19.997168 71.986649,19.989637 71.990280,19.972118 
z"/>
<path fill="#050505" opacity="1.000000" stroke="none" 
	d="
M118.165298,61.887604 
	C117.781372,60.042603 117.776657,58.186100 117.889999,55.649323 
	C118.257973,54.660995 118.507866,54.352943 118.757767,54.044891 
	C118.868515,54.169693 118.979263,54.294491 119.172272,54.656731 
	C119.194893,55.060947 119.135246,55.227718 119.085358,56.047905 
	C119.142342,56.956341 119.189568,57.211369 119.236801,57.466396 
	C119.006035,58.936298 118.775269,60.406197 118.165298,61.887604 
z"/>
<path fill="#0F0F0F" opacity="1.000000" stroke="none" 
	d="
M118.696098,53.759090 
	C118.507866,54.352943 118.257973,54.660995 117.894806,55.248180 
	C117.552086,55.202061 117.322624,54.876812 117.061867,53.979149 
	C117.033249,53.230057 117.035934,53.053375 117.038612,52.876694 
	C117.570549,53.075562 118.102493,53.274426 118.696098,53.759090 
z"/>
<path fill="#121212" opacity="1.000000" stroke="none" 
	d="
M116.970764,52.623787 
	C117.035934,53.053375 117.033249,53.230057 117.025879,53.671749 
	C116.552315,53.463116 116.083427,52.989468 115.784775,52.224033 
	C116.270973,52.078457 116.586945,52.224667 116.970764,52.623787 
z"/>
<path fill="#0F0F0F" opacity="1.000000" stroke="none" 
	d="
M119.395874,57.287033 
	C119.189568,57.211369 119.142342,56.956341 119.067932,56.313011 
	C119.212151,56.319023 119.383545,56.713348 119.395874,57.287033 
z"/>
<path fill="#9A9A9A" opacity="1.000000" stroke="none" 
	d="
M86.032593,70.049652 
	C85.329872,70.269272 84.484367,69.768028 83.168518,68.618134 
	C82.556351,67.607941 82.414536,67.246414 82.272720,66.884888 
	C83.478416,67.699524 84.684120,68.514168 86.032593,70.049652 
z"/>
<path fill="#010101" opacity="1.000000" stroke="none" 
	d="
M78.356567,67.392456 
	C78.538597,67.133781 78.832901,67.137321 79.563072,67.070663 
	C80.454956,66.999809 80.910965,66.999161 81.856430,67.266861 
	C82.253815,67.722595 82.161743,67.909973 81.778984,68.096344 
	C81.296707,68.124512 81.105125,68.153687 80.584465,68.097641 
	C79.803177,68.018173 79.350983,68.023918 78.898781,68.029671 
	C78.755470,67.904678 78.612160,67.779678 78.356567,67.392456 
z"/>
<path fill="#EDEDED" opacity="1.000000" stroke="none" 
	d="
M82.069672,68.097351 
	C82.161743,67.909973 82.253815,67.722595 82.198349,67.258987 
	C82.050797,66.982750 82.217545,66.913956 82.245132,66.899422 
	C82.414536,67.246414 82.556351,67.607941 82.886719,68.520630 
	C83.075264,69.071793 83.043602,69.054230 82.835648,68.970619 
	C82.408478,68.647255 82.222473,68.384041 82.069672,68.097351 
z"/>
<path fill="#9A9A9A" opacity="1.000000" stroke="none" 
	d="
M81.778984,68.096344 
	C82.222473,68.384041 82.408478,68.647255 82.849152,68.983772 
	C82.574684,69.965302 82.078751,70.850075 81.316833,71.899918 
	C81.039070,71.853981 81.027306,71.642952 80.936539,70.907318 
	C80.721733,70.083145 80.767830,69.814827 80.937439,69.231262 
	C80.890533,68.650795 80.902039,68.416832 80.913551,68.182861 
	C81.105125,68.153687 81.296707,68.124512 81.778984,68.096344 
z"/>
<path fill="#272727" opacity="1.000000" stroke="none" 
	d="
M80.995850,69.577751 
	C80.767830,69.814827 80.721733,70.083145 80.911621,70.591278 
	C80.578987,70.800758 80.192276,70.801674 79.517273,70.753159 
	C78.379333,70.254234 77.529694,69.804741 76.867668,69.163101 
	C77.055275,68.970947 77.092926,68.965157 77.495781,68.933929 
	C78.931038,69.127724 79.963448,69.352737 80.995850,69.577751 
z"/>
<path fill="#212121" opacity="1.000000" stroke="none" 
	d="
M77.092926,68.965157 
	C77.092926,68.965157 77.055275,68.970947 77.081635,68.961823 
	C76.396484,68.950584 75.684975,68.948479 74.448807,69.034088 
	C73.199501,69.066254 72.474861,69.010704 71.399460,68.745110 
	C71.048698,68.535065 71.083527,68.251740 71.083527,68.251740 
	C71.255005,68.216545 71.426483,68.181343 71.831215,68.025528 
	C73.367691,67.982330 74.670929,68.059746 76.405632,68.349220 
	C76.837105,68.561272 77.092926,68.965157 77.092926,68.965157 
z"/>
<path fill="#434343" opacity="1.000000" stroke="none" 
	d="
M70.650055,68.181915 
	C71.083527,68.251740 71.048698,68.535065 71.042358,68.677650 
	C69.643517,68.890717 68.251007,68.961197 66.444908,69.099167 
	C65.856010,69.107162 65.680702,69.047668 65.240097,68.906189 
	C64.974785,68.824203 64.975159,68.490433 64.966904,68.324158 
	C66.711288,68.142616 68.463943,68.127350 70.650055,68.181915 
z"/>
<path fill="#EDEDED" opacity="1.000000" stroke="none" 
	d="
M77.495781,68.933929 
	C77.092926,68.965157 76.837105,68.561272 76.796646,68.325760 
	C77.232277,68.056702 77.708359,68.023140 78.541611,68.009628 
	C79.350983,68.023918 79.803177,68.018173 80.584465,68.097641 
	C80.902039,68.416832 80.890533,68.650795 80.937439,69.231262 
	C79.963448,69.352737 78.931038,69.127724 77.495781,68.933929 
z"/>
</svg>